<?xml version="1.0" standalone="no"?>
<!DOCTYPE svg PUBLIC "-//W3C//DTD SVG 20010904//EN"
 "http://www.w3.org/TR/2001/REC-SVG-20010904/DTD/svg10.dtd">
<svg version="1.0" xmlns="http://www.w3.org/2000/svg"
 width="933.000000pt" height="1280.000000pt" viewBox="0 0 933.000000 1280.000000"
 preserveAspectRatio="xMidYMid meet">
<metadata>
Created by potrace 1.15, written by Peter Selinger 2001-2017
</metadata>
<g transform="translate(0.000000,1280.000000) scale(0.100000,-0.100000)"
fill="#000000" stroke="none">
<path d="M5321 12713 c-106 -141 -215 -392 -276 -633 -69 -272 -125 -703 -141
-1086 -4 -85 -9 -153 -10 -151 -2 2 -9 141 -15 308 -24 631 32 1004 221 1475
l39 99 -35 -40 c-107 -120 -201 -346 -249 -602 -39 -204 -47 -340 -53 -908
l-6 -560 -23 250 c-15 166 -25 360 -29 577 -7 360 2 531 42 807 13 91 22 166
20 168 -5 5 -64 -207 -85 -307 -74 -353 -87 -813 -37 -1260 8 -69 17 -152 20
-185 5 -59 5 -59 -9 15 -24 124 -63 454 -76 643 -13 203 -7 719 11 865 6 51 9
99 7 105 -5 16 -43 -187 -64 -342 -24 -178 -24 -662 0 -899 20 -195 66 -516
96 -671 46 -235 -5 -53 -75 269 -74 340 -112 606 -151 1055 l-7 90 -8 -100
c-26 -330 60 -954 218 -1580 12 -49 -27 39 -75 168 -67 180 -123 380 -160 570
-31 161 -71 450 -71 520 0 23 -5 49 -11 57 -15 22 -4 -305 16 -455 19 -146 65
-374 111 -554 39 -154 39 -151 18 -125 -15 19 -16 19 -9 -1 47 -141 58 -181
70 -250 7 -44 12 -81 10 -83 -4 -4 -49 94 -95 208 -100 251 -162 505 -204 840
l-13 105 -2 -70 c-5 -273 80 -698 220 -1105 39 -113 73 -217 76 -232 6 -33
-24 -141 -38 -133 -15 10 -73 132 -114 239 -20 56 -45 150 -56 213 -11 66 -34
153 -55 206 -19 51 -51 148 -70 217 -31 114 -34 113 -18 -5 l6 -40 -29 35
c-15 19 -39 46 -51 60 -20 21 -23 22 -17 5 4 -11 25 -67 45 -125 120 -335 116
-609 -16 -929 -20 -47 -39 -89 -42 -93 -4 -4 -6 64 -4 150 8 369 -52 687 -175
924 -50 99 -138 222 -197 278 l-37 35 50 -105 c94 -200 158 -417 186 -628 16
-119 19 -501 5 -557 -7 -27 -8 -25 -9 17 -3 135 -49 372 -106 545 -130 397
-369 713 -720 955 -44 30 -87 59 -95 63 -8 5 35 -43 96 -106 300 -310 480
-617 574 -983 28 -105 65 -324 57 -332 -2 -2 -12 33 -21 79 -82 382 -288 738
-577 994 -145 129 -329 253 -502 339 -81 40 -78 37 48 -67 285 -233 497 -491
631 -764 53 -110 226 -527 220 -533 -2 -1 -41 55 -87 125 -228 348 -342 516
-406 598 -316 407 -684 634 -1210 745 -57 12 -107 20 -113 18 -6 -2 42 -25
107 -52 253 -105 532 -257 695 -379 253 -189 376 -339 587 -715 50 -90 99
-175 108 -190 23 -38 3 -16 -88 92 -371 446 -788 778 -1214 968 -218 97 -557
202 -720 222 -42 6 -31 -1 70 -37 259 -95 517 -219 723 -347 128 -80 332 -232
466 -347 123 -106 372 -349 509 -498 88 -94 94 -103 47 -66 -724 576 -1448
967 -2085 1125 -113 28 -228 52 -295 60 -54 7 -50 6 147 -58 231 -74 443 -162
683 -282 422 -212 772 -441 1218 -797 89 -71 162 -131 162 -133 0 -2 -86 53
-191 122 -759 498 -1413 814 -1954 944 -88 21 -346 63 -352 57 -1 -2 57 -18
130 -36 576 -142 1233 -479 2005 -1029 72 -51 132 -95 132 -97 0 -1 -100 48
-222 111 -256 129 -391 191 -597 274 -382 153 -768 253 -1135 295 -72 8 -146
17 -165 20 -69 9 -18 -8 185 -60 474 -121 863 -262 1264 -456 216 -105 433
-220 427 -226 -2 -2 -42 14 -88 36 -276 127 -633 252 -934 326 -325 80 -572
114 -870 120 -110 2 -184 1 -165 -1 516 -69 957 -178 1352 -334 108 -43 420
-191 415 -197 -2 -1 -69 22 -149 52 -357 133 -744 224 -1088 255 -130 11 -504
12 -595 0 -33 -4 -51 -8 -39 -9 243 -17 645 -68 839 -106 263 -52 531 -133
705 -214 74 -34 69 -37 -27 -17 -226 48 -442 69 -703 69 -232 1 -364 -11 -560
-49 -122 -23 -300 -71 -350 -93 -24 -11 -24 -11 5 -5 312 64 460 83 690 91
199 6 392 -6 568 -37 103 -19 254 -54 262 -62 2 -2 -58 -3 -133 -4 -464 -2
-949 -182 -1287 -479 -51 -45 -40 -44 30 1 94 59 276 135 500 207 122 39 484
131 491 124 2 -2 -26 -17 -63 -32 -129 -54 -364 -177 -466 -244 -115 -76 -242
-184 -296 -250 -35 -43 -34 -43 39 18 231 194 585 376 1017 525 72 24 153 47
180 51 44 6 38 2 -82 -58 -354 -175 -616 -373 -770 -582 -80 -108 -76 -108 46
10 242 233 508 410 898 594 73 35 134 61 137 59 2 -3 -48 -36 -112 -74 -225
-135 -420 -296 -545 -452 -58 -72 -145 -210 -137 -218 3 -2 20 15 39 39 102
128 297 309 467 435 141 104 443 282 480 282 8 0 -28 -30 -79 -66 -164 -116
-303 -238 -405 -354 -57 -65 -190 -258 -182 -265 2 -2 28 28 58 66 66 84 271
286 357 352 120 91 295 191 435 246 90 36 87 21 -9 -41 -181 -118 -312 -248
-405 -404 -47 -78 -89 -168 -70 -149 6 6 35 43 65 84 140 187 344 363 559 480
93 51 121 50 46 -2 -66 -45 -177 -156 -219 -217 -41 -61 -87 -151 -116 -230
-28 -74 -26 -73 42 29 132 198 426 442 531 441 l39 -1 -35 -26 c-76 -58 -171
-164 -196 -218 -27 -58 -43 -158 -27 -168 5 -3 24 24 42 60 70 134 297 332
365 319 16 -4 31 -8 33 -10 2 -2 -14 -30 -36 -62 -21 -32 -44 -76 -52 -96 -14
-41 -16 -42 -71 -29 -21 5 -38 7 -38 5 0 -2 18 -13 41 -24 l41 -21 -7 -62 -6
-62 26 45 c15 25 28 47 30 49 2 2 33 -14 69 -34 l64 -38 -5 -56 -4 -56 20 44
21 43 28 -17 c134 -88 347 -281 455 -415 59 -73 141 -194 186 -275 l22 -40
-28 35 c-15 19 -62 77 -104 130 -238 297 -492 474 -790 549 -125 32 -148 26
-54 -13 256 -106 479 -255 635 -424 90 -97 109 -130 44 -75 -116 97 -336 224
-489 283 -33 13 -116 47 -185 76 -138 58 -249 95 -354 119 -84 19 -97 13 -24
-11 71 -23 121 -44 116 -49 -2 -2 -29 3 -62 10 -32 8 -56 11 -53 8 3 -3 59
-26 124 -53 172 -69 338 -154 423 -218 118 -88 447 -427 360 -371 -14 9 -57
37 -96 62 -159 103 -404 219 -614 290 -144 49 -324 96 -390 102 -30 3 -91 9
-135 15 -44 5 -114 11 -155 14 l-75 5 65 -20 c327 -99 523 -173 710 -266 108
-55 332 -184 327 -189 -1 -2 -41 11 -87 27 -184 65 -374 103 -605 118 -77 6
-198 16 -270 25 -71 8 -182 17 -245 20 l-115 5 135 -28 c74 -16 125 -29 113
-30 -12 0 -25 -5 -28 -11 -4 -6 16 -10 53 -10 88 0 142 -13 317 -75 165 -59
413 -161 430 -178 6 -6 3 -7 -10 -3 -11 3 -78 12 -150 21 -71 8 -155 21 -185
29 -147 40 -476 89 -665 100 l-90 5 60 -14 c33 -9 148 -35 255 -60 107 -25
209 -49 225 -53 l30 -9 -40 -7 c-144 -25 -258 -50 -338 -75 -51 -16 -130 -34
-177 -41 -47 -6 -119 -20 -160 -31 l-75 -19 92 6 c51 2 93 3 93 0 0 -2 -30
-21 -67 -41 -75 -41 -188 -121 -218 -156 -18 -19 -12 -18 41 9 90 45 216 96
324 131 174 55 202 60 303 51 113 -10 259 -31 254 -37 -3 -2 -51 -15 -108 -28
-106 -24 -142 -34 -284 -85 -44 -15 -127 -43 -185 -60 -179 -54 -342 -145
-447 -249 -49 -49 -120 -141 -109 -141 3 0 34 21 68 46 101 74 105 71 19 -15
-81 -81 -188 -216 -218 -275 -11 -21 17 1 88 69 158 153 342 290 520 389 70
38 114 44 219 28 l45 -7 -50 -19 c-74 -27 -231 -112 -303 -163 -188 -134 -329
-322 -378 -503 -11 -39 -31 -81 -50 -105 -18 -22 -47 -58 -65 -80 l-34 -40 57
48 c31 26 58 47 60 47 2 0 29 24 59 53 129 125 421 328 654 456 l60 33 -90
-86 c-50 -48 -116 -100 -148 -116 -64 -34 -72 -45 -25 -35 l32 8 -29 -39
c-108 -140 -215 -335 -281 -507 -35 -91 -39 -126 -8 -65 28 56 163 249 229
328 79 94 243 254 315 307 47 34 68 43 140 54 112 18 571 19 695 1 159 -23
376 -70 515 -112 138 -42 423 -150 416 -157 -2 -2 -39 3 -81 12 -105 21 -308
51 -495 72 -217 24 -676 24 -850 -1 -250 -34 -417 -80 -578 -159 -99 -48 -114
-64 -35 -36 344 120 812 172 1244 139 197 -15 595 -72 609 -87 3 -3 -78 -3
-180 1 -218 7 -593 -7 -770 -29 -497 -64 -782 -219 -868 -474 -11 -33 -18 -61
-14 -61 4 0 22 21 41 46 98 130 294 256 505 323 197 63 297 75 616 74 185 -1
322 -6 390 -15 119 -16 131 -12 -125 -43 -563 -69 -987 -194 -1195 -353 -83
-63 -146 -149 -164 -226 -7 -27 -2 -25 60 34 219 204 562 322 1084 370 152 15
206 10 100 -9 -121 -21 -374 -88 -520 -137 -341 -116 -579 -273 -660 -437 -35
-71 -52 -160 -43 -223 l6 -44 38 78 c112 230 411 427 859 565 127 40 343 97
348 93 1 -2 -26 -14 -60 -26 -548 -199 -912 -461 -1049 -753 -34 -75 -69 -205
-69 -261 l0 -41 33 76 c126 288 412 551 823 757 136 68 326 152 312 137 -4 -4
-44 -30 -90 -58 -247 -153 -424 -293 -586 -462 -196 -206 -313 -422 -351 -650
-13 -83 -25 -241 -16 -233 4 4 29 61 55 127 125 310 271 539 480 755 122 126
242 225 390 323 144 96 144 95 64 12 -260 -273 -438 -583 -518 -906 -25 -97
-59 -303 -52 -311 2 -2 12 18 21 45 140 383 249 592 413 793 57 71 209 226
200 205 -2 -5 -21 -46 -42 -90 -124 -259 -165 -498 -151 -880 7 -204 20 -369
24 -295 7 166 78 597 136 827 46 181 65 228 65 160 0 -95 63 -494 112 -702 22
-96 40 -144 32 -85 -14 105 -26 389 -31 736 l-6 391 28 51 c15 28 31 49 35 47
4 -2 10 -42 13 -88 13 -167 63 -411 120 -587 l24 -75 -5 225 c-5 221 7 505 30
709 10 91 15 108 38 135 l28 30 6 -79 c25 -314 64 -553 127 -770 17 -60 32
-111 33 -112 0 -1 1 177 1 395 1 349 12 600 31 693 3 18 18 32 49 47 l44 21
11 -37 c59 -210 150 -742 150 -875 0 -76 17 -24 30 88 26 241 22 720 -7 866
-4 24 -1 27 38 37 24 6 47 8 51 4 28 -29 188 -599 218 -782 7 -41 16 -79 20
-83 4 -5 11 62 15 149 9 179 -6 447 -34 618 l-18 108 50 -6 c28 -3 54 -9 58
-13 22 -23 88 -344 114 -557 8 -66 16 -121 18 -123 6 -5 36 186 47 297 5 52
10 146 10 207 l0 112 53 -30 c246 -144 524 -472 735 -869 40 -77 50 -105 51
-146 0 -32 10 -72 27 -107 14 -32 29 -83 34 -115 5 -31 16 -74 25 -96 11 -25
14 -51 10 -75 -3 -21 -1 -50 6 -66 17 -45 27 -105 18 -110 -4 -3 -8 -47 -8
-97 1 -77 5 -103 30 -164 18 -44 27 -83 24 -96 -3 -13 5 -51 18 -88 19 -50 22
-71 15 -90 -7 -18 -5 -41 8 -82 10 -35 14 -67 9 -85 -4 -15 -9 -70 -11 -121
-3 -83 -1 -101 22 -155 16 -38 24 -72 21 -91 -2 -18 5 -57 19 -93 20 -52 22
-67 12 -88 -9 -20 -9 -37 0 -73 17 -72 18 -98 3 -116 -13 -15 -16 -37 -12 -91
1 -11 -1 -36 -5 -56 -4 -27 0 -50 16 -85 14 -29 24 -73 25 -109 2 -33 12 -83
22 -110 18 -47 19 -53 4 -83 -12 -26 -13 -39 -4 -65 19 -52 18 -100 0 -128
-10 -15 -17 -44 -17 -65 0 -22 -2 -56 -6 -77 -5 -28 0 -51 17 -90 14 -32 24
-74 25 -112 1 -33 9 -80 18 -104 16 -42 16 -48 1 -81 -12 -26 -14 -42 -6 -61
18 -49 17 -106 -4 -129 -13 -14 -21 -39 -22 -69 -1 -25 -5 -62 -8 -82 -5 -27
-1 -49 16 -85 15 -33 23 -71 24 -114 1 -36 10 -84 19 -108 15 -39 15 -44 0
-67 -12 -19 -15 -36 -9 -68 3 -23 9 -56 12 -73 4 -25 -1 -37 -22 -58 -22 -22
-26 -34 -23 -64 3 -20 -1 -48 -9 -62 -18 -34 -16 -64 6 -108 26 -52 34 -94 22
-124 -7 -20 -4 -39 13 -83 l24 -56 -22 -39 c-18 -34 -19 -43 -8 -72 18 -51 15
-92 -9 -114 -29 -26 -41 -61 -29 -84 7 -13 6 -21 -4 -29 -24 -20 -29 -78 -11
-114 39 -74 46 -107 30 -136 -12 -24 -12 -31 2 -57 31 -58 34 -85 13 -112 -67
-84 41 -160 168 -118 35 12 57 14 69 8 57 -29 149 -18 211 27 23 16 45 21 94
21 103 0 206 64 224 138 9 38 43 102 53 102 5 0 14 13 21 29 15 37 0 69 -40
82 l-28 10 25 49 c20 39 23 52 14 69 -6 11 -9 37 -5 59 5 34 3 41 -25 65 -38
31 -39 51 -5 115 30 58 26 82 -16 122 -27 25 -27 28 -15 64 7 21 23 48 34 60
29 31 27 70 -5 95 -14 11 -30 21 -35 23 -7 2 -2 21 11 46 19 36 21 47 11 69
-6 14 -9 40 -5 59 5 28 2 38 -25 64 -36 37 -38 57 -11 110 28 55 25 86 -10
122 -17 16 -30 35 -30 43 0 17 21 64 44 98 16 23 17 32 7 56 -7 16 -24 34 -37
40 -14 6 -23 17 -20 24 22 54 28 89 19 110 -6 12 -8 37 -6 54 4 27 0 38 -26
62 -34 32 -39 61 -16 101 23 40 19 94 -10 128 -30 36 -31 65 -5 115 11 20 20
50 20 65 0 29 -26 62 -49 62 -9 0 -11 7 -6 23 5 12 8 45 7 72 0 28 -1 67 -1
88 0 26 -8 45 -26 63 -28 28 -28 27 -9 150 5 35 2 45 -22 74 -31 36 -33 73 -8
122 23 45 18 84 -16 110 -28 22 -30 26 -19 56 6 18 8 47 5 65 -7 30 -12 66
-15 102 0 8 -11 25 -23 37 -23 23 -25 48 -13 138 6 38 3 51 -19 83 -30 43 -33
85 -10 129 19 36 12 70 -19 101 -17 17 -22 35 -24 82 -1 33 -4 75 -6 93 -3 17
-5 39 -6 47 0 8 -11 25 -23 37 -17 17 -22 33 -21 63 6 136 9 122 -42 191 -6 9
-5 33 6 72 16 65 10 109 -18 130 -13 10 -18 28 -19 70 -2 85 -20 162 -45 188
-19 20 -21 31 -16 84 6 71 -5 120 -33 145 -23 21 -26 59 -9 116 14 44 -1 93
-32 109 -15 9 -17 18 -12 59 3 27 1 57 -5 68 -9 15 -5 47 14 134 154 685 549
1092 1216 1254 147 36 274 48 422 42 164 -7 302 -35 429 -89 l47 -20 0 -117
c0 -64 -7 -159 -14 -211 -8 -52 -13 -96 -11 -98 11 -11 89 180 120 291 l21 79
90 -60 c49 -33 102 -72 118 -87 l28 -26 -7 -123 c-4 -67 -12 -154 -19 -194 -7
-40 -11 -72 -9 -72 9 0 71 138 98 218 l32 93 76 -82 c57 -61 77 -89 77 -110 0
-44 -30 -189 -50 -243 -11 -27 -18 -52 -16 -54 6 -5 103 133 128 181 l19 39
25 -34 c14 -18 58 -97 99 -174 l74 -142 -21 -68 c-11 -38 -36 -100 -55 -139
l-35 -70 41 40 c23 22 56 61 74 87 18 26 35 48 39 48 3 0 57 -99 119 -220 62
-120 115 -217 117 -215 3 3 -129 430 -161 520 -13 36 -12 44 9 105 13 36 24
73 24 84 0 16 2 16 16 6 30 -26 153 -197 259 -363 59 -92 110 -166 112 -163 9
9 -29 111 -87 231 -48 99 -175 302 -259 415 -15 20 -18 35 -12 73 l6 49 55
-64 c84 -95 165 -198 279 -351 57 -76 105 -136 108 -133 9 8 -85 214 -141 310
-64 109 -150 221 -248 322 -61 63 -69 76 -79 128 -6 32 -9 60 -6 62 6 7 130
-100 209 -182 91 -94 163 -182 260 -321 40 -56 73 -101 75 -99 5 4 -44 121
-84 201 -90 180 -257 377 -426 504 -61 45 -93 76 -103 100 -8 19 -12 36 -10
39 7 6 151 -77 261 -151 95 -64 290 -211 300 -227 4 -6 11 -10 16 -10 27 0
-171 217 -286 313 -144 121 -344 235 -531 303 -53 19 -110 46 -126 59 -16 14
-27 25 -25 25 3 0 60 -16 126 -35 269 -77 523 -209 781 -403 71 -53 -67 75
-175 163 -263 214 -523 342 -779 381 -55 8 -114 17 -131 20 -21 3 -38 17 -57
44 l-28 40 108 0 c243 0 494 -54 782 -167 63 -25 119 -50 125 -54 5 -5 16 -9
25 -9 18 0 -125 95 -235 155 -272 149 -595 221 -874 195 -66 -6 -134 -15 -153
-20 -51 -15 -64 -12 -77 16 -6 15 -10 28 -8 30 11 11 167 44 251 53 186 21
428 6 720 -43 82 -14 151 -24 153 -22 7 6 -258 95 -357 120 -189 47 -286 60
-465 60 -184 0 -301 -19 -436 -68 -57 -21 -73 -23 -119 -14 -43 8 -64 6 -120
-11 -116 -36 -205 -136 -254 -288 -10 -28 -30 -68 -45 -87 l-28 -35 -12 86
-11 86 46 87 c82 155 204 298 363 425 l73 59 125 4 c511 17 1039 -160 1500
-505 l38 -28 -43 50 c-93 107 -249 238 -405 339 -87 57 -277 152 -350 176
-112 36 49 12 268 -40 174 -41 510 -146 572 -178 27 -14 153 -61 153 -57 0 2
-37 24 -83 49 -60 33 -92 58 -120 95 -162 212 -495 353 -907 383 -141 11 -157
14 -138 26 20 11 20 12 3 8 -180 -47 -366 -72 -351 -48 11 18 162 62 291 84
108 18 131 19 230 9 242 -26 527 -98 761 -191 69 -27 138 -57 154 -65 57 -29
30 -4 -55 51 -82 54 -278 154 -302 154 -6 0 -14 4 -18 9 -5 9 99 -17 165 -40
l25 -9 -25 21 c-61 52 -221 116 -360 144 -97 20 -668 39 -800 27 -52 -5 -96
-8 -98 -7 -6 5 111 55 213 93 l100 37 205 -1 c124 -1 250 -8 319 -18 63 -8
117 -14 119 -11 7 6 -187 64 -272 80 -44 9 -81 17 -84 19 -2 2 23 10 55 16
113 23 121 29 28 24 -49 -3 -97 -8 -105 -11 -8 -2 -112 -9 -230 -14 -118 -4
-251 -13 -294 -19 -44 -5 -81 -8 -83 -6 -2 2 103 58 234 125 131 66 233 120
226 121 -7 0 -22 -4 -35 -9 -13 -6 -81 -31 -152 -57 -148 -53 -390 -158 -486
-211 -36 -19 -110 -51 -164 -70 -55 -19 -131 -50 -170 -69 l-71 -35 40 37 c61
55 211 166 316 232 147 92 237 138 332 170 91 31 124 48 72 38 -17 -3 20 19
80 49 61 31 103 54 95 52 -83 -23 -215 -67 -323 -108 -73 -28 -193 -71 -267
-95 -159 -53 -364 -150 -487 -229 l-88 -57 100 102 c55 56 147 140 205 187
102 82 331 243 346 243 4 0 21 -12 36 -27 15 -15 28 -22 28 -15 0 6 -4 14 -10
17 -5 3 -14 14 -20 25 -9 16 0 24 71 65 l81 47 41 -28 c23 -15 68 -47 101 -72
76 -58 58 -27 -36 64 -90 87 -178 149 -285 203 -90 45 -240 105 -290 116 -51
10 -39 25 15 19 326 -37 655 -167 935 -368 44 -31 77 -53 75 -48 -1 5 -32 35
-68 67 -144 129 -408 277 -640 361 -180 64 -161 71 50 18 334 -84 646 -218
901 -389 44 -29 79 -49 79 -45 0 12 -93 94 -175 155 -149 112 -356 211 -593
284 -70 21 -143 44 -162 50 -64 20 62 3 221 -29 371 -76 726 -204 963 -348 38
-24 71 -41 73 -38 8 8 -172 136 -261 185 -181 100 -426 184 -702 240 -225 46
-92 54 266 15 359 -38 718 -127 912 -225 33 -17 62 -28 65 -26 7 8 -128 84
-217 122 -165 71 -466 150 -652 171 -115 13 -42 24 166 24 313 0 581 -25 756
-70 41 -10 76 -18 77 -16 7 7 -179 86 -268 115 -218 69 -436 97 -698 88 -184
-6 -312 -24 -446 -62 -44 -13 -81 -22 -83 -20 -6 6 255 134 356 174 277 111
610 179 972 199 l135 8 -118 8 c-198 14 -506 -17 -745 -75 -222 -53 -439 -130
-651 -230 -68 -33 -126 -59 -129 -59 -2 0 26 25 64 56 260 214 737 455 1232
625 67 23 121 43 119 46 -8 7 -294 -57 -431 -97 -390 -114 -816 -331 -1191
-607 l-60 -45 75 72 c299 289 804 600 1330 819 80 33 140 61 134 61 -20 0
-276 -78 -390 -119 -207 -74 -451 -186 -649 -299 -196 -111 -534 -347 -710
-495 -33 -28 -69 -58 -80 -66 -51 -41 19 31 160 162 400 374 839 689 1318 946
53 29 97 54 97 57 0 6 -156 -53 -295 -112 -346 -147 -690 -361 -1035 -643
-115 -94 -353 -305 -385 -341 -11 -12 -38 -36 -60 -54 -33 -25 -24 -12 45 74
403 502 757 868 1108 1148 127 101 351 251 497 331 60 34 106 61 102 61 -4 0
-64 -24 -133 -54 -273 -118 -540 -294 -867 -568 -169 -143 -632 -606 -812
-813 -76 -88 -150 -171 -163 -185 -73 -73 286 413 451 611 352 423 775 798
1159 1030 49 29 86 54 84 56 -8 8 -275 -128 -402 -204 -485 -292 -967 -758
-1424 -1378 -57 -77 -107 -144 -113 -150 -24 -26 180 359 281 530 164 279 307
467 511 677 157 162 281 269 455 393 61 44 123 88 136 98 67 48 -301 -149
-403 -217 -191 -125 -312 -228 -487 -412 -229 -240 -436 -570 -610 -969 -28
-66 -54 -122 -57 -125 -4 -3 -4 2 0 11 3 9 24 99 47 200 23 101 43 185 45 187
2 2 18 -4 37 -13 l33 -17 -34 29 -35 30 37 114 c91 284 232 496 505 761 76 73
195 178 264 233 69 55 125 101 123 103 -8 9 -258 -127 -366 -199 -150 -100
-343 -287 -437 -422 -33 -49 -63 -94 -65 -100 -5 -13 -106 91 -107 108 0 13
103 177 167 265 l48 65 -42 -33 c-23 -18 -87 -80 -142 -138 l-100 -106 -66 41
c-37 22 -72 42 -78 44 -6 2 -3 15 8 33 l19 29 -27 -24 c-26 -23 -29 -24 -80
-11 -76 18 -182 10 -236 -18 -24 -13 -45 -21 -47 -19 -8 8 84 123 143 178 110
105 249 155 403 146 91 -5 89 2 -6 27 -198 51 -406 -35 -574 -236 -30 -36 -56
-65 -58 -63 -7 6 77 195 117 264 60 103 148 215 239 305 l80 78 4 -96 c5 -118
22 -149 85 -154 27 -2 44 2 53 13 11 14 8 27 -23 88 -30 59 -37 84 -38 140 -2
59 1 70 22 93 l24 26 -29 -8 -28 -7 6 324 c4 178 8 380 11 449 5 169 -7 102
-34 -175 -12 -121 -24 -242 -27 -270 -5 -49 -6 -51 -67 -85 -94 -53 -259 -222
-346 -355 -82 -124 -188 -334 -256 -505 -57 -143 -49 -96 20 115 131 399 252
653 490 1020 33 50 -94 -64 -158 -143 -166 -203 -299 -477 -443 -906 -35 -105
-63 -185 -64 -178 0 24 91 446 140 647 124 507 264 882 410 1102 l52 78 -47
-45 c-189 -181 -380 -652 -564 -1395 -32 -132 -65 -269 -72 -305 -7 -35 -14
-60 -16 -54 -8 24 83 526 142 791 105 461 250 868 392 1097 l26 41 -33 -30
c-83 -78 -206 -297 -295 -525 -120 -308 -197 -615 -328 -1305 l-16 -80 5 65
c60 872 175 1436 374 1829 17 34 28 61 26 61 -2 0 -27 -30 -55 -67z m674
-1025 c-13 -205 -9 -193 -73 -229 -71 -41 -187 -151 -256 -243 -65 -87 -164
-256 -207 -354 -18 -40 -34 -71 -35 -69 -2 2 9 41 25 88 116 341 279 621 484
837 33 34 62 62 64 62 3 0 2 -42 -2 -92z m-137 -1073 c2 -2 -9 -22 -24 -44
l-27 -41 -91 0 c-107 0 -238 -20 -356 -54 l-85 -25 34 29 c80 68 224 123 361
139 64 7 178 4 188 -4z m170 -31 l52 -15 -29 -43 -30 -43 -70 16 c-39 9 -71
19 -71 24 0 4 9 26 21 48 23 45 16 44 127 13z m-1311 -6 c-3 -8 -6 -5 -6 6 -1
11 2 17 5 13 3 -3 4 -12 1 -19z m1491 -65 c15 -9 41 -25 59 -37 l31 -20 -19
-38 c-11 -21 -22 -38 -24 -38 -10 0 -125 60 -125 66 0 9 40 84 46 84 2 0 17
-7 32 -17z m-458 -68 c0 -3 -19 -42 -42 -88 l-41 -84 -36 8 c-20 4 -71 11
-114 14 -74 7 -78 9 -73 29 l5 21 -17 -21 c-14 -18 -32 -23 -106 -28 -49 -3
-101 -9 -115 -11 -47 -9 132 74 228 105 116 38 311 72 311 55z m229 -10 c2 -3
-10 -31 -28 -62 -18 -32 -43 -81 -56 -110 l-24 -51 -48 18 c-28 11 -47 24 -45
32 1 7 17 53 34 102 l31 88 66 -6 c36 -4 67 -9 70 -11z m261 -82 c0 -8 -9 -32
-21 -55 -11 -22 -35 -78 -52 -122 -18 -45 -36 -83 -40 -85 -4 -1 -32 11 -62
28 l-54 31 29 84 c17 46 39 104 49 129 l20 46 65 -22 c38 -12 66 -27 66 -34z
m-870 -155 c-1 -30 -15 -35 -70 -27 -30 4 -79 8 -109 8 -68 1 -62 9 15 20 93
14 164 13 164 -1z m260 -3 c11 -7 -21 -95 -34 -95 -6 1 -47 11 -91 24 -80 24
-95 37 -81 73 6 14 20 15 103 9 53 -4 99 -9 103 -11z m173 -36 c22 -6 37 -15
34 -22 -2 -7 -12 -37 -22 -67 -10 -30 -19 -56 -20 -58 -1 -2 -18 5 -37 14 -35
16 -35 17 -27 58 22 99 14 91 72 75z m266 -93 l48 -25 -29 -88 c-15 -48 -30
-94 -33 -101 -3 -9 -17 -3 -47 20 -24 18 -44 34 -46 35 -4 2 28 165 35 176 7
12 21 8 72 -17z m-776 7 c35 -5 38 -8 32 -32 -4 -14 -8 -27 -9 -28 -1 -2 -33
6 -72 16 -38 11 -98 26 -134 34 l-65 15 105 1 c58 0 122 -2 143 -6z m220 -40
l69 -18 -7 -45 c-4 -25 -10 -48 -13 -51 -4 -4 -40 7 -79 25 -72 31 -73 32 -73
69 0 44 5 45 103 20z m259 -97 c0 -3 -5 -35 -12 -71 l-12 -64 -24 16 c-25 16
-31 55 -18 121 6 29 7 30 36 18 16 -7 30 -16 30 -20z m-503 -12 c30 -6 31 -9
31 -55 0 -49 0 -49 -27 -43 -16 4 -35 10 -43 14 -8 4 -39 13 -67 20 -45 10
-53 15 -53 35 0 19 6 25 33 28 57 7 94 7 126 1z m-214 -34 c-3 -5 -16 -10 -28
-10 -18 0 -19 2 -7 10 20 13 43 13 35 0z m478 -31 c18 -10 20 -38 9 -121 l-7
-47 -50 30 c-68 42 -75 54 -75 120 l0 58 53 -16 c28 -8 60 -19 70 -24z m467
-29 c22 -11 40 -23 40 -27 0 -8 -43 -167 -46 -172 -2 -2 -16 6 -31 17 -29 20
-29 21 -22 94 4 40 8 81 8 91 1 21 3 21 51 -3z m-970 -66 c0 -12 -6 -15 -22
-10 -13 3 -30 6 -38 7 -8 1 -1 5 15 9 45 11 45 11 45 -6z m693 4 c14 -11 16
-27 10 -115 -6 -104 -15 -125 -33 -77 -12 31 -13 204 -2 204 5 0 16 -6 25 -12z
m-498 -16 l70 -18 3 -53 3 -53 -30 21 c-17 12 -60 35 -96 52 -48 22 -65 34
-65 49 0 25 22 25 115 2z m-833 -168 l50 -149 -31 -60 c-36 -70 -150 -249
-155 -244 -2 2 7 60 19 129 30 162 55 357 55 428 0 30 2 53 6 50 3 -3 28 -73
56 -154z m1148 -53 l0 -95 -44 43 c-38 38 -46 52 -55 106 -18 101 -19 99 44
68 l55 -27 0 -95z m427 94 l21 -15 -35 -117 c-19 -65 -37 -120 -40 -123 -3 -3
-3 20 0 50 4 30 9 92 13 138 4 45 10 82 13 82 4 0 16 -7 28 -15z m-953 -1 c10
-4 16 -18 16 -39 l0 -33 -35 11 c-29 9 -35 15 -35 39 0 29 18 36 54 22z m238
-62 l64 -29 12 -74 c7 -41 15 -85 19 -99 6 -21 -1 -18 -50 27 -31 28 -77 64
-102 80 -44 27 -65 65 -65 117 0 24 34 18 122 -22z m473 -54 c2 -7 6 -60 8
-118 l5 -105 -13 65 c-21 109 -27 170 -15 170 6 0 12 -6 15 -12z m-684 -79 c8
-4 20 -29 27 -56 6 -26 15 -59 18 -71 6 -20 -3 -16 -65 29 -59 43 -71 56 -67
73 3 12 6 27 6 33 0 13 49 8 81 -8z m523 -150 c10 -61 20 -118 23 -126 4 -10
2 -14 -8 -11 -13 4 -98 246 -99 281 0 16 4 15 34 -8 32 -24 34 -30 50 -136z
m1527 85 c57 -15 149 -44 204 -65 112 -44 298 -140 297 -154 0 -5 -37 -22 -82
-38 l-81 -29 -72 69 c-40 39 -105 91 -145 117 -70 45 -200 106 -228 106 -7 0
-16 5 -19 10 -9 15 13 12 126 -16z m-1796 -55 l73 -50 41 -127 c25 -79 37
-130 31 -136 -5 -5 -11 -8 -13 -5 -51 60 -104 131 -132 174 -35 55 -105 189
-105 201 0 11 31 -5 105 -57z m1684 -25 c122 -40 256 -107 348 -175 l66 -48
-27 -11 c-15 -5 -33 -10 -39 -10 -21 0 -247 -128 -366 -207 -157 -104 -286
-210 -419 -344 l-114 -114 27 60 c122 277 245 428 516 628 l36 27 58 -58 58
-57 -6 39 c-3 21 -18 56 -31 77 -24 35 -24 39 -8 49 13 8 11 9 -13 4 -30 -5
-30 -5 -9 13 11 10 31 26 45 35 l24 18 -30 -12 c-16 -6 -34 -15 -39 -20 -17
-14 -32 -9 -100 36 -37 24 -94 54 -126 66 -33 12 -60 24 -60 27 0 2 10 8 23
13 29 12 59 6 186 -36z m-3960 5 c17 -6 31 -15 31 -20 0 -4 -17 -33 -39 -63
-21 -31 -44 -69 -51 -86 -7 -16 -17 -30 -22 -30 -27 0 -118 33 -118 42 0 10
154 168 163 168 2 0 18 -5 36 -11z m3751 -72 c47 -18 108 -45 134 -61 l48 -28
-82 -55 c-45 -30 -83 -53 -84 -51 -2 2 -17 24 -34 49 l-31 46 27 21 27 21 -34
-13 c-34 -14 -36 -13 -87 33 -52 45 -52 46 -31 58 33 18 54 15 147 -20z
m-1704 -23 l71 -35 49 -111 c27 -61 51 -116 53 -122 2 -6 -32 23 -75 65 -44
42 -115 101 -160 132 -76 53 -80 58 -76 88 4 29 7 31 36 25 17 -3 63 -22 102
-42z m-1658 -100 c58 -36 141 -91 184 -122 72 -53 81 -64 127 -152 41 -79 111
-255 111 -278 0 -4 -14 11 -32 33 -63 79 -204 218 -273 269 -113 85 -118 81
-21 -17 117 -117 220 -250 307 -397 76 -129 83 -146 93 -210 l7 -45 -54 85
c-215 340 -288 433 -442 560 -98 80 -200 144 -317 199 l-101 47 34 39 c19 21
60 56 92 76 l59 38 60 -30 c33 -17 108 -60 166 -95z m3171 27 l54 -28 -47 -27
c-49 -28 -51 -28 -103 13 l-32 25 21 23 c27 29 41 28 107 -6z m-2027 -88 c9
-48 16 -89 14 -90 -2 -2 -17 23 -34 56 -28 53 -30 63 -19 90 6 17 14 31 17 31
3 0 13 -39 22 -87z m77 11 c23 -38 26 -54 12 -54 -7 0 -41 70 -41 85 0 12 10
2 29 -31z m2081 -10 c22 -20 40 -40 40 -45 0 -10 -109 -85 -113 -78 -2 2 -15
21 -30 41 -15 20 -27 40 -27 44 0 8 72 73 82 74 5 0 26 -16 48 -36z m-275 -28
l35 -15 -88 -88 c-136 -137 -241 -310 -318 -527 -15 -44 -30 -74 -32 -68 -5
17 44 193 78 280 61 152 240 432 276 432 8 0 30 -6 49 -14z m-1925 -72 c0 -15
-10 -26 -30 -34 -17 -7 -33 -10 -36 -8 -2 3 6 31 18 63 l22 59 13 -30 c6 -16
12 -39 13 -50z m658 -40 l-12 -25 -48 48 c-26 26 -48 51 -48 56 0 4 27 -6 59
-23 56 -30 59 -33 49 -56z m-243 8 c16 -31 58 -99 92 -151 l63 -94 0 -99 c0
-76 -3 -98 -14 -98 -9 0 -15 19 -19 60 -4 32 -13 74 -21 92 -14 32 -14 32 -15
-44 -1 -77 -8 -91 -30 -64 -17 20 -34 180 -28 259 2 38 1 65 -4 60 -13 -13
-37 -117 -45 -194 l-7 -73 -19 24 c-17 21 -18 36 -13 189 9 222 11 228 60 133z
m1648 17 l37 -30 -78 -62 c-95 -76 -204 -184 -267 -268 -68 -90 -70 -91 -40
-24 38 87 89 175 136 237 43 55 159 178 169 178 3 0 22 -14 43 -31z m-1326
-56 c43 -36 83 -97 83 -128 0 -21 -20 -9 -93 57 -52 47 -58 56 -52 81 4 15 9
27 12 27 3 0 25 -17 50 -37z m-464 -130 c7 -34 -6 -46 -17 -17 -6 15 2 60 8
52 2 -2 6 -18 9 -35z m-42 -194 c47 -78 49 -84 43 -135 -4 -30 -10 -54 -14
-54 -4 0 -17 24 -29 53 -40 95 -42 97 -37 27 3 -36 14 -94 25 -130 l21 -65
-22 -92 c-12 -51 -25 -93 -28 -93 -4 0 -15 17 -26 38 -18 33 -19 47 -12 127 5
50 6 157 3 238 -5 109 -3 152 6 163 15 18 12 21 70 -77z m-656 -22 c70 -79 84
-113 84 -197 0 -31 -5 -23 -48 65 -26 55 -63 125 -82 155 -50 79 -56 89 -37
70 8 -8 45 -50 83 -93z m1163 -79 c14 -16 13 -18 -11 -18 -29 0 -41 16 -52 70
l-8 35 29 -35 c15 -19 34 -43 42 -52z m-669 -15 c-1 -43 -4 -109 -8 -148 l-6
-70 -17 45 c-9 25 -19 83 -22 129 -5 77 -4 84 17 102 12 10 25 18 30 19 4 0 6
-35 6 -77z m1262 -59 c-18 -60 -34 -126 -38 -146 -3 -21 -9 -38 -13 -38 -12 0
-22 87 -15 123 7 33 85 180 93 173 2 -2 -10 -53 -27 -112z m1619 78 c-19 -9
-83 -40 -142 -69 -60 -29 -108 -51 -108 -49 0 11 112 74 184 103 84 34 127 44
66 15z m-2500 -217 c0 -17 -20 -92 -36 -135 -4 -10 -11 -5 -27 20 -18 28 -22
52 -25 134 l-3 101 45 -50 c25 -27 46 -59 46 -70z m-622 -170 l-1 -40 -8 45
c-4 25 -7 56 -7 70 0 23 1 22 8 -5 4 -16 8 -48 8 -70z m4072 68 c129 -25 289
-83 420 -149 142 -73 217 -123 115 -78 -190 84 -408 163 -660 238 l-50 15 50
-5 c28 -3 84 -12 125 -21z m-3271 -27 c8 -9 8 -16 2 -20 -6 -4 -15 3 -21 14
-12 23 2 27 19 6z m-49 -162 c0 -11 -6 -28 -13 -38 -12 -16 -17 -13 -55 37
-23 30 -40 61 -38 68 3 8 10 34 17 59 l11 45 39 -75 c21 -41 38 -84 39 -96z
m-249 94 c10 -54 11 -132 2 -142 -11 -10 -43 154 -36 182 8 33 23 14 34 -40z
m-174 -105 c-20 -64 -44 -22 -32 55 l7 47 18 -34 c14 -27 15 -41 7 -68z
m-2377 77 c76 -12 204 -49 197 -57 -3 -2 -30 2 -59 11 -29 8 -96 23 -148 32
-52 8 -97 18 -99 20 -7 7 42 4 109 -6z m2986 -157 c-6 -6 -44 50 -61 91 -28
68 -14 61 26 -13 22 -40 38 -76 35 -78z m1904 50 c-59 -44 -194 -185 -244
-256 l-48 -67 -22 32 c-31 46 -109 102 -173 124 l-54 19 43 18 c100 44 241 91
363 123 163 42 182 43 135 7z m-2673 -25 c-3 -7 -5 -2 -5 12 0 14 2 19 5 13 2
-7 2 -19 0 -25z m466 -17 c27 -46 22 -61 -18 -61 -19 0 -35 3 -35 6 0 16 24
84 29 84 4 0 14 -13 24 -29z m202 -41 c44 -69 55 -100 35 -100 -5 0 -10 3 -10
8 0 4 -15 23 -33 42 -54 59 -58 67 -51 94 3 14 8 26 10 26 2 0 24 -32 49 -70z
m-405 -11 c0 -22 -5 -29 -20 -29 -23 0 -24 7 -10 45 12 33 30 24 30 -16z m230
-46 c0 -38 -15 -45 -44 -22 -21 17 -25 24 -14 30 24 15 58 10 58 -8z m156
-137 c7 -22 -9 -41 -26 -31 -12 7 -70 126 -70 142 0 12 89 -90 96 -111z
m-3078 85 c26 -16 -105 -41 -260 -51 -148 -9 -305 -27 -320 -36 -5 -3 -8 -2
-8 1 0 13 140 68 205 80 78 14 363 19 383 6z m2667 -1 c-3 -5 -11 -10 -16 -10
-6 0 -7 5 -4 10 3 6 11 10 16 10 6 0 7 -4 4 -10z m146 -72 c10 -63 -3 -88 -32
-62 -11 10 -19 22 -19 28 0 18 33 97 38 91 3 -2 9 -28 13 -57z m1488 -178 c32
-119 103 -499 95 -511 -2 -4 -16 -10 -31 -14 -50 -12 -247 -116 -337 -178
-156 -107 -322 -281 -424 -442 -53 -86 -119 -226 -157 -338 l-38 -108 -25 37
c-22 33 -24 43 -18 108 5 61 3 76 -14 104 -18 30 -19 40 -10 130 42 405 166
712 384 949 64 69 67 71 98 62 17 -5 34 -6 37 -4 2 3 0 5 -5 5 -6 0 -18 6 -28
13 -16 12 -11 18 56 73 40 33 88 71 106 83 l34 23 -30 -58 c-30 -59 -74 -189
-86 -254 -5 -22 11 2 43 68 69 142 128 226 222 318 64 61 83 75 89 63 5 -8 22
-66 39 -129z m-1295 19 c-3 -5 -20 -11 -40 -15 -25 -5 -40 -2 -53 10 -24 22
-34 72 -20 98 10 19 14 17 65 -33 29 -29 51 -56 48 -60z m158 64 c32 -38 32
-46 -1 -27 -17 10 -31 24 -31 31 0 18 14 16 32 -4z m-398 -22 c3 -5 -1 -14 -8
-20 -12 -10 -13 -8 -9 8 6 23 9 25 17 12z m-1710 -88 c114 -81 358 -273 436
-342 31 -28 27 -27 -40 12 -264 153 -549 292 -755 368 -49 18 -94 36 -99 41
-6 4 68 8 164 8 l173 0 121 -87z m3559 -166 c20 -114 22 -139 11 -182 l-12
-50 -1 60 c-2 77 -25 251 -45 338 -9 38 -16 71 -15 75 3 22 42 -129 62 -241z
m837 181 c0 -4 -5 -8 -11 -8 -7 0 -55 -20 -107 -45 -52 -25 -97 -43 -99 -41
-6 6 65 59 132 100 55 33 61 35 73 19 6 -9 12 -20 12 -25z m-4976 -9 c275 -79
555 -201 801 -346 153 -91 178 -110 105 -81 -122 48 -433 149 -562 182 -147
38 -317 69 -463 86 -106 12 -406 12 -485 1 -30 -5 -57 -7 -59 -5 -5 5 134 72
227 110 66 27 259 89 291 93 2 1 68 -17 145 -40z m-969 13 c-6 -5 -44 -33 -85
-62 -119 -85 -272 -213 -402 -339 l-122 -116 45 65 c57 84 226 253 312 314
101 72 301 181 252 138z m1869 -8 c51 -13 72 -24 104 -57 51 -53 205 -246 262
-329 40 -59 35 -55 -81 62 -118 120 -263 253 -339 312 -41 32 -32 34 54 12z
m1464 -1 c-2 -10 -11 -19 -21 -21 -16 -3 -17 -1 -5 17 16 25 31 27 26 4z
m2899 -92 c10 -17 9 -20 -15 -24 -33 -6 -48 13 -25 31 22 16 26 15 40 -7z
m-2599 -114 c62 -43 112 -83 112 -88 0 -37 -280 43 -296 85 -8 20 45 98 60 88
6 -4 62 -42 124 -85z m-1289 62 c23 -8 38 -24 55 -58 42 -82 117 -263 111
-269 -7 -7 -8 -5 -45 68 -29 57 -91 161 -144 243 -21 31 -20 31 23 16z m3456
-39 c-3 -5 -12 -10 -18 -10 -7 0 -6 4 3 10 19 12 23 12 15 0z m-2560 -30 c3
-5 -8 -16 -24 -25 -42 -21 -48 -19 -21 10 25 27 35 30 45 15z m3005 -4 c0 -9
-30 -14 -35 -6 -4 6 3 10 14 10 12 0 21 -2 21 -4z m-3597 -78 c15 -11 18 -35
21 -168 l4 -155 -25 70 c-13 39 -48 127 -77 197 l-54 127 57 -29 c31 -15 64
-34 74 -42z m3397 52 c0 -5 -5 -10 -11 -10 -5 0 -7 5 -4 10 3 6 8 10 11 10 2
0 4 -4 4 -10z m-2607 -222 c26 -106 49 -204 52 -218 3 -14 -26 67 -65 179 -52
154 -67 208 -59 218 6 7 14 13 18 13 3 0 28 -87 54 -192z m286 -95 c-4 -54 -8
-143 -8 -198 -1 -55 -4 -110 -7 -122 -6 -21 -8 -21 -27 -8 -12 8 -34 15 -50
15 -15 0 -29 6 -31 13 -3 6 -30 122 -61 257 -32 135 -60 250 -62 257 -3 7 53
-17 124 -52 l128 -64 -6 -98z m-416 170 c2 -10 33 -108 67 -217 59 -186 62
-200 46 -212 -10 -7 -23 -11 -30 -8 -7 3 -21 -4 -31 -16 -18 -20 -19 -18 -104
133 -48 83 -94 164 -104 178 l-17 26 77 65 c43 37 81 67 84 67 4 1 9 -7 12
-16z m-471 -36 l37 -32 -39 -114 c-21 -62 -41 -116 -44 -119 -3 -3 -6 63 -6
146 0 84 3 152 8 152 4 -1 24 -15 44 -33z m3985 -27 c16 -6 37 -24 47 -41 l18
-31 -23 7 c-42 12 -84 41 -87 58 -4 20 4 21 45 7z m-2970 -48 c9 -5 8 -23 -4
-72 -8 -36 -26 -121 -39 -190 l-24 -125 5 125 c9 219 16 270 34 270 9 0 21 -4
28 -8z m-797 -138 c127 -148 274 -372 292 -444 4 -19 10 -55 12 -80 2 -25 18
-75 35 -112 17 -37 31 -81 31 -97 0 -16 12 -54 26 -85 46 -101 21 -91 -52 21
-96 145 -205 281 -358 446 l-128 138 6 47 c14 104 51 242 65 242 3 0 36 -34
71 -76z m3845 -35 c46 -17 56 -25 63 -52 5 -18 8 -33 6 -35 -4 -6 -134 91
-134 100 0 11 2 11 65 -13z m-12 -185 c76 -39 115 -75 119 -110 2 -19 2 -34 0
-34 -8 0 -162 144 -162 152 0 11 7 10 43 -8z m126 -359 c0 -11 -4 -28 -8 -39
-6 -15 -11 -10 -27 30 -10 27 -21 53 -23 58 -2 5 11 0 28 -10 19 -11 31 -26
30 -39z"/>
<path d="M6066 6309 c-30 -177 -79 -855 -74 -1019 4 -133 12 -159 55 -179 33
-15 47 -14 73 7 l22 18 -37 74 -37 73 -5 176 c-3 97 0 334 5 526 5 193 8 352
6 354 -1 1 -5 -12 -8 -30z"/>
<path d="M6060 4736 c-22 -7 -42 -24 -55 -46 -43 -74 -19 -620 56 -1300 11
-102 23 -187 26 -190 2 -3 1 77 -3 178 -4 100 -7 398 -8 661 l-1 479 43 82
c23 45 42 90 42 100 0 36 -48 53 -100 36z"/>
</g>
</svg>
