<?xml version="1.0" standalone="no"?>
<!DOCTYPE svg PUBLIC "-//W3C//DTD SVG 20010904//EN"
 "http://www.w3.org/TR/2001/REC-SVG-20010904/DTD/svg10.dtd">
<svg version="1.0" xmlns="http://www.w3.org/2000/svg"
 width="1280.000000pt" height="833.000000pt" viewBox="0 0 1280.000000 833.000000"
 preserveAspectRatio="xMidYMid meet">
<metadata>
Created by potrace 1.15, written by Peter Selinger 2001-2017
</metadata>
<g transform="translate(0.000000,833.000000) scale(0.100000,-0.100000)"
fill="#000000" stroke="none">
<path d="M2611 8317 c-17 -22 -4 -43 58 -92 28 -21 49 -40 48 -41 -1 -1 -27 4
-57 12 -74 20 -138 13 -165 -18 -80 -96 -135 -187 -135 -223 0 -55 24 -70 128
-80 111 -11 66 -43 -99 -70 -51 -8 -98 -20 -105 -27 -7 -7 -56 -157 -109 -333
-54 -176 -101 -324 -105 -328 -4 -5 -20 43 -35 105 -51 206 -91 305 -160 393
-17 22 -50 73 -74 114 -44 74 -140 206 -215 294 -33 37 -53 51 -101 66 -239
77 -450 116 -574 107 -108 -8 -181 -27 -309 -78 l-103 -42 -75 -132 c-105
-186 -222 -424 -234 -476 -5 -24 -10 -96 -10 -161 0 -182 39 -304 109 -339 45
-22 80 -9 131 51 l40 46 0 186 c0 213 9 369 21 369 5 0 9 -43 9 -95 0 -104 21
-178 61 -221 31 -33 49 -30 89 11 32 33 59 46 232 109 63 23 97 51 118 100
l19 41 0 -41 c1 -23 4 -55 7 -71 l6 -29 146 -23 c81 -13 150 -24 155 -25 4 0
33 56 66 127 55 122 80 165 68 122 -3 -11 -13 -77 -23 -148 l-17 -127 44 -37
c76 -63 153 -145 243 -259 98 -125 131 -183 175 -307 27 -77 29 -88 13 -83 -9
3 -131 39 -271 81 -429 129 -547 151 -698 129 -127 -17 -185 -43 -353 -154
-219 -145 -346 -298 -492 -594 l-73 -149 1 -101 c0 -61 7 -126 17 -163 42
-153 221 -560 298 -677 l43 -66 18 28 c31 47 47 113 57 227 8 103 7 113 -15
162 -12 29 -37 74 -54 100 l-31 48 54 -59 c32 -36 59 -56 66 -52 19 12 41 62
72 168 29 99 72 188 90 188 16 0 -4 35 -55 95 -27 33 -57 68 -65 78 -11 13 2
9 43 -12 96 -51 143 -39 281 69 97 76 166 110 223 110 l44 0 -19 24 c-10 14
-84 84 -166 155 -81 72 -142 131 -135 131 24 0 122 -51 257 -133 l134 -82 121
2 c67 2 136 0 154 -3 33 -5 32 -6 -45 -46 -145 -76 -318 -182 -360 -221 -103
-95 -242 -279 -374 -497 l-64 -105 3 -320 3 -320 39 -80 c50 -101 94 -159 254
-335 92 -101 149 -154 204 -190 42 -28 81 -50 88 -50 8 0 6 23 -8 78 -33 137
-58 256 -58 285 0 49 -28 97 -97 168 l-67 70 47 -21 c98 -44 153 -24 151 55
-1 37 -6 49 -30 67 -45 35 -258 238 -268 256 -5 9 8 2 30 -15 54 -43 152 -91
200 -99 69 -11 113 24 114 89 0 50 -10 67 -60 102 -22 15 -39 30 -36 32 2 2
33 -7 69 -21 l66 -25 85 142 c47 78 86 147 86 153 0 7 -39 62 -86 124 -95 124
-98 119 41 68 124 -46 137 -47 173 -3 16 20 38 52 48 71 l19 34 -120 120 c-66
66 -117 120 -114 120 2 0 72 -22 154 -50 82 -27 160 -50 173 -50 39 0 87 36
141 104 90 112 146 153 199 144 18 -3 15 -12 -35 -103 -73 -135 -194 -392
-255 -545 -64 -158 -244 -701 -309 -928 -163 -575 -249 -1422 -194 -1896 22
-181 91 -582 121 -701 60 -234 176 -467 362 -725 97 -135 340 -378 495 -495
l118 -89 -58 -49 c-80 -69 -258 -252 -315 -324 l-47 -59 237 -68 237 -67 3998
1 c3962 0 4000 0 4130 20 228 35 307 52 307 64 0 25 -171 237 -294 364 -72 75
-126 133 -120 129 34 -20 430 324 564 488 201 247 352 524 425 781 30 107 97
480 125 698 57 448 -9 1220 -156 1800 -59 236 -244 807 -333 1027 -91 229
-185 429 -277 591 -24 43 -44 80 -44 83 0 11 82 4 108 -9 30 -16 88 -74 146
-148 43 -54 92 -88 128 -88 13 0 91 23 173 50 82 28 152 50 154 50 3 0 -48
-54 -114 -120 l-120 -120 19 -34 c10 -19 32 -51 48 -71 36 -44 49 -43 173 3
139 51 136 56 41 -68 -47 -62 -86 -117 -86 -124 0 -6 39 -75 86 -153 l85 -142
66 25 c36 14 67 23 69 21 3 -2 -14 -17 -36 -32 -50 -35 -60 -52 -60 -102 1
-65 45 -100 114 -89 48 8 146 56 200 99 22 17 35 24 30 15 -10 -18 -223 -221
-268 -256 -24 -18 -29 -30 -30 -67 -2 -78 53 -99 149 -56 25 11 45 18 45 16 0
-2 -25 -27 -55 -56 -75 -71 -92 -102 -105 -190 -7 -40 -25 -129 -41 -196 -34
-144 -35 -158 -12 -149 63 24 164 110 279 237 160 175 204 233 254 334 l39 80
3 320 3 320 -64 105 c-132 218 -271 402 -374 497 -40 37 -204 138 -354 218
-50 27 -69 42 -60 47 8 4 75 6 149 5 l135 -2 134 82 c135 82 233 133 257 133
7 0 -54 -59 -135 -131 -82 -71 -156 -141 -166 -155 l-19 -24 44 0 c57 0 126
-34 223 -110 138 -108 185 -120 281 -69 41 21 54 25 43 12 -8 -10 -38 -45 -65
-78 -51 -60 -71 -95 -55 -95 18 0 61 -89 90 -188 31 -106 53 -156 73 -168 7
-5 32 15 65 52 l54 59 -37 -59 c-68 -109 -72 -127 -62 -251 9 -114 25 -180 56
-227 l18 -28 43 66 c77 117 256 524 298 677 10 37 17 102 17 163 l1 101 -73
149 c-146 296 -273 449 -492 594 -167 111 -228 137 -353 155 -150 21 -270 -1
-698 -130 -140 -42 -262 -78 -271 -81 -16 -5 -14 6 13 83 44 124 77 182 175
307 90 114 167 196 243 259 l44 37 -17 127 c-10 71 -20 137 -23 148 -12 43 13
0 68 -122 33 -71 62 -127 66 -127 5 1 74 12 155 25 l146 23 6 29 c3 16 6 48 7
71 l0 41 19 -41 c21 -49 55 -77 118 -100 173 -63 200 -76 232 -109 40 -41 58
-44 89 -11 40 43 61 117 61 221 0 52 4 95 9 95 12 0 21 -156 21 -369 l0 -186
40 -46 c51 -60 86 -73 131 -51 70 35 109 157 109 339 0 65 -5 137 -10 161 -12
52 -130 290 -235 476 l-75 134 -103 41 c-129 51 -201 69 -308 77 -124 9 -335
-30 -575 -107 -59 -19 -65 -24 -152 -132 -50 -62 -115 -152 -146 -202 -30 -49
-70 -110 -89 -135 -72 -97 -109 -186 -163 -403 -15 -59 -30 -104 -34 -100 -4
4 -51 152 -105 328 -53 176 -102 326 -109 333 -7 7 -54 19 -105 27 -165 27
-210 59 -99 70 104 10 128 25 128 80 0 36 -55 127 -135 223 -27 31 -91 38
-165 18 -30 -8 -56 -13 -57 -12 -1 1 20 20 48 41 62 49 75 70 58 92 -21 24
-243 15 -285 -12 -132 -86 -436 -290 -511 -344 l-92 -66 -49 -105 c-63 -132
-60 -122 -77 -254 -18 -137 -18 -146 -1 -146 13 0 102 112 195 245 l42 60 74
5 c84 7 103 19 135 86 12 23 28 48 36 54 12 11 14 5 14 -34 0 -44 1 -47 22
-41 13 4 39 16 58 27 29 16 25 10 -22 -34 -82 -75 -80 -87 29 -201 117 -123
125 -127 237 -116 50 6 96 8 104 7 8 -2 -11 -20 -42 -42 -53 -36 -75 -69 -68
-104 2 -7 79 -136 172 -287 93 -151 166 -275 164 -275 -12 0 -79 39 -202 117
-156 99 -229 134 -338 162 -263 67 -540 67 -764 1 -185 -55 -494 -250 -582
-368 -57 -77 -117 -169 -143 -220 -42 -84 -60 -223 -57 -432 1 -102 6 -218 10
-258 l7 -73 105 84 c152 122 170 145 230 282 57 130 66 146 57 100 -17 -81
-28 -167 -23 -172 12 -12 156 68 253 140 91 68 103 80 108 114 11 63 46 175
70 223 38 73 143 220 159 220 3 0 -6 -32 -19 -70 -53 -155 -84 -369 -52 -357
39 15 311 88 361 96 85 16 146 14 292 -9 147 -22 186 -33 231 -66 42 -32 48
-66 23 -138 -22 -65 -26 -139 -9 -201 6 -22 41 -105 79 -185 82 -174 92 -217
88 -351 -2 -76 0 -104 9 -104 7 0 73 80 147 178 l135 179 -16 41 c-11 28 -17
76 -17 147 -1 91 2 110 21 139 l21 34 31 -61 c93 -185 208 -556 361 -1172 167
-671 250 -1420 210 -1895 -13 -143 -64 -476 -87 -560 -74 -271 -315 -687 -569
-984 -163 -191 -289 -294 -471 -385 l-72 -36 -89 30 c-330 110 -678 60 -975
-142 -136 -92 -259 -128 -507 -149 -114 -9 -251 -9 -635 1 -704 19 -979 8
-1269 -49 -280 -56 -492 -75 -831 -75 -385 -1 -559 20 -1050 125 -354 76 -448
87 -530 66 l-60 -15 -70 43 c-278 173 -579 228 -898 163 -54 -11 -60 -11 -115
16 -272 133 -500 353 -747 721 -159 238 -298 515 -339 680 -25 99 -75 431 -87
580 -31 381 29 1030 147 1585 43 202 66 293 155 625 123 456 181 634 259 799
30 62 34 67 46 51 30 -41 30 -197 0 -282 l-15 -41 135 -179 c74 -98 140 -178
147 -178 9 0 11 28 9 104 -4 134 6 177 88 351 38 80 73 163 79 185 17 62 13
136 -9 201 -25 72 -19 106 23 138 45 33 84 44 231 66 146 23 207 25 292 9 50
-8 322 -81 362 -96 31 -12 5 176 -47 336 -16 50 -27 91 -24 91 15 0 121 -148
158 -220 24 -48 59 -160 70 -223 5 -34 17 -46 108 -114 97 -72 241 -152 253
-140 5 5 -6 91 -23 172 -9 46 0 30 57 -100 60 -137 78 -160 230 -282 l105 -84
6 68 c4 37 10 140 14 228 6 139 4 177 -15 290 -24 148 -38 179 -141 331 -80
117 -140 171 -299 272 -191 119 -304 165 -484 197 -223 38 -565 0 -752 -85
-34 -15 -123 -66 -196 -113 -123 -78 -190 -117 -202 -117 -2 0 72 125 166 278
171 278 187 312 158 347 -6 8 -35 29 -63 47 -60 39 -53 42 69 29 112 -11 120
-7 237 116 109 114 111 126 30 201 -48 44 -52 50 -23 34 19 -11 45 -23 58 -27
21 -6 22 -3 22 41 0 39 2 45 14 34 8 -6 24 -31 36 -54 32 -67 51 -79 135 -86
l74 -5 42 -60 c93 -133 182 -245 195 -245 17 0 17 9 -1 146 -17 132 -14 122
-77 254 l-49 105 -92 66 c-75 54 -379 258 -511 344 -42 27 -264 36 -285 12z"/>
</g>
</svg>
